<?xml version="1.0" encoding="UTF-8" standalone="no"?>
<svg width="21px" height="14px" viewBox="0 0 21 14" version="1.1" xmlns="http://www.w3.org/2000/svg" xmlns:xlink="http://www.w3.org/1999/xlink">
    <!-- Generator: Sketch 39.1 (31720) - http://www.bohemiancoding.com/sketch -->
    <title>close-envelope-grey</title>
    <desc>Created with Sketch.</desc>
    <defs></defs>
    <g id="Page-1" stroke="none" stroke-width="1" fill="none" fill-rule="evenodd">
        <g id="Войти" transform="translate(-372.000000, -260.000000)" fill="#E0E6ED">
            <g id="close-envelope-grey" transform="translate(372.000000, 260.000000)">
                <path d="M10.4162188,9.8035 L7.83726563,7.67725 L0.47228125,13.61675 C0.74003125,13.8565 1.09703125,14 1.49679688,14 L19.3282031,14 C19.7261094,14 20.0831094,13.8565 20.3508594,13.61675 L12.985875,7.67725 L10.4162188,9.8035 Z" id="Fill-1"></path>
                <path d="M20.3508594,0.38325 C20.0905469,0.1435 19.7261094,0 19.3282031,0 L1.49679688,0 C1.10446875,0 0.74003125,0.1435 0.47228125,0.38325 L10.4162188,8.40175 L20.3508594,0.38325 Z" id="Fill-2"></path>
                <polygon id="Fill-3" points="0 1.23025 0 12.859 7.19020313 7.1085"></polygon>
                <polygon id="Fill-4" points="13.6329375 7.1085 20.8231406 12.859 20.8231406 1.22325"></polygon>
            </g>
        </g>
    </g>
</svg>