<?xml version="1.0" encoding="UTF-8" standalone="no"?>
<svg width="30px" height="30px" viewBox="0 0 30 30" version="1.1" xmlns="http://www.w3.org/2000/svg" xmlns:xlink="http://www.w3.org/1999/xlink">
    <!-- Generator: Sketch 39.1 (31720) - http://www.bohemiancoding.com/sketch -->
    <title>Facebook</title>
    <desc>Created with Sketch.</desc>
    <defs></defs>
    <g id="Page-1" stroke="none" stroke-width="1" fill="none" fill-rule="evenodd">
        <g id="Войти" transform="translate(-793.000000, -585.000000)">
            <g id="Facebook" transform="translate(793.000000, 585.000000)">
                <circle id="Oval-8" fill="#4E67A4" cx="15" cy="15" r="15"></circle>
                <path d="M16.5210046,8.91891892 C14.5928659,8.91891892 13.346818,10.1607133 13.346818,12.0827194 L13.346818,13.5414433 L11.6212137,13.5414433 C11.472101,13.5414433 11.3513514,13.6588688 11.3513514,13.8037113 L11.3513514,15.917236 C11.3513514,16.0620786 11.4722387,16.1793703 11.6212137,16.1793703 L13.346818,16.1793703 L13.346818,21.5124659 C13.346818,21.6573084 13.4675676,21.7746002 13.6166803,21.7746002 L15.868103,21.7746002 C16.0172157,21.7746002 16.1379653,21.6571747 16.1379653,21.5124659 L16.1379653,16.1793703 L18.1555992,16.1793703 C18.3047119,16.1793703 18.4254615,16.0620786 18.4254615,15.917236 L18.4262876,13.8037113 C18.4262876,13.7341655 18.3977868,13.667562 18.3472565,13.6183449 C18.2967262,13.5691279 18.2278837,13.5414433 18.1562876,13.5414433 L16.1379653,13.5414433 L16.1379653,12.3048649 C16.1379653,11.7105155 16.2837736,11.4087935 17.0808312,11.4087935 L18.2369709,11.4083923 C18.3859459,11.4083923 18.5066956,11.2909668 18.5066956,11.146258 L18.5066956,9.18372806 C18.5066956,9.03915297 18.3860836,8.92186124 18.2372463,8.92159376 L16.5210046,8.91891892 Z" id="facebook" fill="#FFFFFF"></path>
            </g>
        </g>
    </g>
</svg>