<?xml version="1.0" encoding="UTF-8" standalone="no"?>
<svg width="30px" height="30px" viewBox="0 0 30 30" version="1.1" xmlns="http://www.w3.org/2000/svg" xmlns:xlink="http://www.w3.org/1999/xlink">
    <!-- Generator: Sketch 39.1 (31720) - http://www.bohemiancoding.com/sketch -->
    <title>Google</title>
    <desc>Created with Sketch.</desc>
    <defs>
        <polygon id="path-1" points="0.003515625 0.015703125 0.003515625 14.0225977 6.64863281 14.0225977 6.64863281 0.015703125 0.003515625 0.015703125"></polygon>
    </defs>
    <g id="Page-1" stroke="none" stroke-width="1" fill="none" fill-rule="evenodd">
        <g id="Войти" transform="translate(-543.000000, -585.000000)">
            <g id="Google" transform="translate(543.000000, 585.000000)">
                <g id="Group-3" transform="translate(0.000000, 8.085938)">
                    <mask id="mask-2" fill="white">
                        <use xlink:href="#path-1"></use>
                    </mask>
                    <g id="Clip-2"></g>
                    <path d="M6.64863281,10.0434375 L5.604375,13.9417969 L1.78763672,14.0225977 C0.646992188,11.9068945 0,9.48632813 0,6.9140625 C0,4.42669922 0.604921875,2.08107422 1.6771875,0.015703125 L1.67800781,0.015703125 L5.07603516,0.638730469 L6.56455078,4.01625 C6.25300781,4.92451172 6.08326172,5.89951172 6.08326172,6.9140625 C6.08326172,8.01515625 6.28271484,9.07013672 6.64863281,10.0434375" id="Fill-1" fill="#FEBE00" mask="url(#mask-2)"></path>
                </g>
                <path d="M29.7379102,12.1978125 C29.9101758,13.1051953 30,14.0422852 30,15 C30,16.0739063 29.8870898,17.1214453 29.6719922,18.1318945 C28.9417383,21.5703516 27.0338086,24.5728125 24.3906445,26.6975391 L24.3898242,26.6967188 L20.1099023,26.4782813 L19.5041016,22.6969922 C21.2579883,21.6683789 22.6285547,20.0588086 23.3505469,18.1318945 L15.3296484,18.1318945 L15.3296484,12.1978125 L29.7379102,12.1978125" id="Fill-4" fill="#397FFB"></path>
                <path d="M24.3898242,26.6967187 L24.3906445,26.6975391 C21.8200781,28.7637305 18.5546484,30 15,30 C9.28763672,30 4.32117187,26.807168 1.78763672,22.1085352 L6.64863281,18.129375 C7.91537109,21.5101758 11.1766406,23.9167383 15,23.9167383 C16.6433789,23.9167383 18.1829883,23.4725391 19.5041016,22.6969922 L24.3898242,26.6967187" id="Fill-5" fill="#22AA4A"></path>
                <path d="M24.5744531,3.45328125 L19.7150977,7.43162109 C18.3478125,6.57691406 16.7316211,6.08326172 15,6.08326172 C11.0900977,6.08326172 7.76783203,8.60027344 6.56455078,12.1021875 L1.67800781,8.10164062 L1.6771875,8.10164062 C4.17363281,3.28845703 9.20273437,0 15,0 C18.6395508,0 21.9766406,1.29644531 24.5744531,3.45328125" id="Fill-6" fill="#F04121"></path>
            </g>
        </g>
    </g>
</svg>