<?xml version="1.0" encoding="UTF-8" standalone="no"?>
<svg width="125px" height="31px" viewBox="0 0 125 31" version="1.1" xmlns="http://www.w3.org/2000/svg" xmlns:xlink="http://www.w3.org/1999/xlink">
    <!-- Generator: Sketch 39.1 (31720) - http://www.bohemiancoding.com/sketch -->
    <title>Logo-grey</title>
    <desc>Created with Sketch.</desc>
    <defs></defs>
    <g id="Page-1" stroke="none" stroke-width="1" fill="none" fill-rule="evenodd">
        <g id="Войти" transform="translate(-621.000000, -65.000000)">
            <g id="Logo-grey" transform="translate(622.000000, 66.000000)">
                <g id="fingerprint-copy-3">
                    <path d="M13.9722222,0.277777778 C21.5661236,0.277777778 27.7222222,6.43387637 27.7222222,14.0277778 C27.7222222,21.6216792 21.5661236,27.7777778 13.9722222,27.7777778 C6.37832081,27.7777778 0.222222222,21.6216792 0.222222222,14.0277778 C0.222222222,6.43387637 6.37832081,0.277777778 13.9722222,0.277777778" id="Fill-1" fill="#EFF2F7"></path>
                    <path d="M2.88177778,6.14522222 C2.83438889,6.14522222 2.78694444,6.14522222 2.73955556,6.09777778 C2.64472222,6.00294444 2.59733333,5.86077778 2.69216667,5.76594444 C4.77805556,2.9215 7.76472222,0.977777778 11.2255,0.314055556 C14.2595556,-0.302222222 17.3410556,0.0770555556 20.1380556,1.45183333 C20.2328889,1.49927778 20.2802778,1.6415 20.2328889,1.78372222 C20.1855,1.87855556 20.0432778,1.97333333 19.9010556,1.87855556 C17.1988333,0.551111111 14.2121667,0.171888889 11.2728889,0.788166667 C7.95438889,1.45188889 5.01511111,3.34816667 3.024,6.05038889 C3.024,6.09777778 2.92916667,6.14522222 2.88177778,6.14522222 L2.88177778,6.14522222 Z M24.3099444,13.5407778 C24.2151111,13.5407778 24.0728889,13.4459444 24.0728889,13.3511111 C24.0254444,12.9244444 23.9306667,12.4977778 23.8358333,12.0711111 C23.8358333,12.0711111 23.8358333,12.0711111 23.8358333,12.0237222 C23.3143333,9.36888889 21.7973333,7.09333333 19.5217778,5.62372222 C17.2936111,4.15405556 14.5913889,3.58522222 11.9365556,4.15405556 C7.81211111,4.96 4.73066667,8.18372222 4.01955556,12.3081667 C4.01955556,12.4503889 3.87733333,12.5452222 3.73511111,12.4977778 C3.59288889,12.4977778 3.49805556,12.3555556 3.54544444,12.2133333 C4.304,7.89927778 7.57511111,4.53333333 11.8417778,3.68 C14.5913889,3.11111111 17.4358333,3.68 19.7587778,5.24444444 C22.0817778,6.80888889 23.6936111,9.17927778 24.2625,11.9288889 C24.2625,11.9288889 24.2625,11.9288889 24.2625,11.9762778 C24.3573333,12.4503889 24.4521111,12.8770556 24.4995556,13.3037222 C24.5469444,13.3985556 24.4521667,13.5407778 24.3099444,13.5407778 L24.3099444,13.5407778 Z M27.7232778,14.5363333 L27.7232778,14.5363333 C27.581,14.5363333 27.4862222,14.4415 27.4862222,14.2992778 C27.4862222,13.3511111 27.4387778,12.3555556 27.2491667,11.4074444 L27.2491667,11.36 C26.5855,7.94666667 24.5943333,4.96 21.7498889,2.96888889 C21.6551111,2.87405556 21.6076667,2.73188889 21.7025,2.63705556 C21.7973333,2.54222222 21.9395556,2.49483333 22.0343333,2.58961111 C24.9736111,4.62816667 26.9647222,7.70961111 27.6758333,11.2177778 L27.6758333,11.2651667 C27.8654444,12.2607778 27.9602778,13.3037222 27.9602778,14.2992778 C27.9602778,14.4415 27.8655,14.5363333 27.7232778,14.5363333 L27.7232778,14.5363333 Z M17.7202778,17.2859444 C17.5780556,17.2859444 17.4832222,17.1911111 17.4832222,17.0488889 C17.4832222,15.8163333 17.341,14.5837222 17.104,13.3985556 L17.104,13.3511111 C16.9143333,12.5451667 16.4402778,11.8340556 15.7291667,11.36 C15.0180556,10.8859444 14.1647222,10.6962778 13.3113889,10.8859444 C12.0313889,11.1229444 11.0832222,12.1185 10.7987778,13.3511111 C10.7513889,13.4933333 10.6565556,13.5407222 10.5143333,13.5407222 C10.3721111,13.4933333 10.3247222,13.3985556 10.3247222,13.2562778 C10.6091667,11.8340556 11.7469444,10.6962778 13.2165556,10.4118333 C14.1647222,10.2222222 15.1602778,10.4118333 15.9662222,10.9333333 C16.7721111,11.4548333 17.341,12.3081667 17.5306667,13.2562778 L17.5306667,13.3037222 C17.7677222,14.5362778 17.9099444,15.7688889 17.9099444,17.0015 C17.9573333,17.1437222 17.8625,17.2859444 17.7202778,17.2859444 L17.7202778,17.2859444 Z M0.653611111,17.523 C0.558777778,17.523 0.464,17.4281667 0.416555556,17.3333333 C0.369166667,17.1437222 0.321777778,16.9541111 0.274388889,16.8118889 L0.274388889,16.7644444 C-0.341944444,13.6355556 0.0847222222,10.4592778 1.50694444,7.66222222 C1.55438889,7.56738889 1.69661111,7.52 1.83883333,7.56738889 C1.93366667,7.61483333 1.98105556,7.75705556 1.93366667,7.89927778 C0.558833333,10.6015 0.132166667,13.6355556 0.701055556,16.6696111 L0.701055556,16.7170556 C0.748444444,16.9066667 0.795888889,17.0962778 0.843277778,17.2859444 C0.890666667,17.4281667 0.795833333,17.523 0.653611111,17.5703889 L0.653611111,17.523 L0.653611111,17.523 Z M20.8491667,20.9363333 L20.8491667,20.9363333 C20.6595556,20.8888889 20.6121111,20.7941111 20.6121111,20.6518889 C21.0387778,17.9970556 20.9913889,15.3422222 20.4698889,12.6874444 C20.1380556,10.9807778 19.0951111,9.46372222 17.6254444,8.46816667 C16.1558333,7.47261111 14.4017778,7.14077778 12.6476667,7.47261111 C10.8936111,7.8045 9.424,8.84744444 8.42844444,10.3170556 C7.48027778,11.7866667 7.101,13.5407778 7.43288889,15.2474444 L7.43288889,15.2948333 C7.6225,16.1955556 7.66988889,17.0963333 7.57511111,17.9970556 C7.57511111,18.1392778 7.43288889,18.2341111 7.29066667,18.1866667 C7.14844444,18.1866667 7.05361111,18.0445 7.101,17.9022222 C7.19583333,17.0963333 7.14844444,16.243 7.00616667,15.4370556 L7.00616667,15.3896667 C6.62694444,13.5407778 7.00616667,11.6444444 8.04916667,10.0326111 C9.09211111,8.42077778 10.704,7.37777778 12.5528889,6.99855556 C14.4017778,6.61927778 16.2980556,6.99855556 17.9098889,8.0415 C19.4743333,9.0845 20.5647222,10.6963333 20.944,12.5452222 C21.4654444,15.2474444 21.5128889,17.9496667 21.0862222,20.6518889 C21.0862222,20.8415 20.9913889,20.9363333 20.8491667,20.9363333 L20.8491667,20.9363333 Z M2.12327778,21.2681667 C2.07583333,21.2681667 1.98105556,21.2207222 1.93361111,21.1733333 C1.83877778,21.0785 1.83877778,20.9362778 1.98105556,20.8415 C3.35583333,19.7037222 3.97216667,17.9022222 3.64027778,16.1481667 L3.64027778,16.1007222 C3.54544444,15.5318333 3.45066667,15.0103889 3.45066667,14.4415 C3.45066667,14.2992778 3.5455,14.2044444 3.68772222,14.2044444 C3.82994444,14.2044444 3.92472222,14.2992778 3.92472222,14.4415 C3.92472222,14.9629444 4.01955556,15.4844444 4.11438889,16.0059444 L4.11438889,16.0533333 C4.49361111,17.9970556 3.82994444,19.9881667 2.31288889,21.2681667 C2.26544444,21.2207778 2.21805556,21.2681667 2.12327778,21.2681667 L2.12327778,21.2681667 Z M23.7410556,23.923 L23.6936111,23.923 C23.5513889,23.8755556 23.504,23.7807778 23.504,23.6385556 C24.2151111,20.9837222 24.4995556,18.2341111 24.3099444,15.4844444 C24.3099444,15.3422222 24.4047222,15.2473889 24.5469444,15.2473889 C24.6891667,15.2473889 24.784,15.3422222 24.784,15.4844444 C24.9736111,18.2815 24.6891667,21.0785 23.9780556,23.7807222 C23.9306667,23.8755556 23.8358333,23.923 23.7410556,23.923 L23.7410556,23.923 Z M4.25661111,23.9703889 C4.20916667,23.9703889 4.11438889,23.923 4.06694444,23.8755556 C3.97211111,23.7807222 4.01955556,23.6385556 4.11438889,23.5437222 C5.25211111,22.6429444 6.1055,21.4103889 6.62694444,20.083 C6.67438889,19.9407778 6.81655556,19.8933333 6.91138889,19.9407778 C7.05361111,19.9881667 7.101,20.1303889 7.05361111,20.2252222 C6.48472222,21.6474444 5.584,22.9274444 4.39877778,23.8755556 C4.35138889,23.923 4.304,23.9703889 4.25661111,23.9703889 L4.25661111,23.9703889 Z M7.00622222,26.1037222 C6.95877778,26.1037222 6.864,26.0563333 6.81655556,26.0088889 C6.72177778,25.9140556 6.72177778,25.7718889 6.81655556,25.6770556 C9.61361111,23.0696111 10.9884444,19.2770556 10.4669444,15.4844444 C10.4669444,15.3422222 10.5617778,15.2473889 10.6565556,15.2 C10.7987778,15.1526111 10.8936111,15.2948333 10.941,15.3896111 C11.4625,19.3244444 10.0402778,23.2592778 7.14844444,26.0088889 C7.14844444,26.0563333 7.101,26.1037222 7.00622222,26.1037222 L7.00622222,26.1037222 Z M18.9054444,27.0518889 C18.8580556,27.0518889 18.8580556,27.0518889 18.8106667,27.0044444 C18.7158333,26.9570556 18.6210556,26.8148333 18.7158333,26.6726111 C19.3321667,25.3926111 19.8536111,24.0652222 20.1855,22.6903889 C20.2328889,22.5481667 20.3277222,22.5007778 20.4699444,22.5007778 C20.6121667,22.5481667 20.6595556,22.6429444 20.6595556,22.7852222 C20.2802778,24.16 19.7588333,25.5348333 19.1425,26.8148333 C19.0476667,27.0044444 19.0002778,27.0518889 18.9054444,27.0518889 L18.9054444,27.0518889 Z M10.4195556,27.5259444 C10.3721111,27.5259444 10.3247222,27.5259444 10.2773333,27.4785556 C10.1825,27.3837222 10.1825,27.2415 10.2773333,27.1466667 C13.4536111,23.5437222 14.7336111,18.7555556 13.7854444,14.0622222 C13.7380556,13.92 13.8328889,13.8251667 13.9751111,13.7777778 C14.1173333,13.7303889 14.2121111,13.8251667 14.2595556,13.9673889 C15.2551111,18.8029444 13.9276667,23.7333333 10.6565556,27.4311111 C10.5617778,27.4785556 10.4669444,27.5259444 10.4195556,27.5259444 L10.4195556,27.5259444 Z M14.4017778,28 C14.3543333,28 14.3069444,28 14.2595556,27.9526111 C14.1647222,27.8577778 14.1173333,27.7155556 14.2121111,27.6207778 C15.9187778,25.1081667 17.0091667,22.2163333 17.341,19.1822222 C17.341,19.04 17.4832222,18.9452222 17.6254444,18.9926111 C17.7677222,18.9926111 17.8625,19.1348333 17.8151111,19.2770556 C17.4832222,22.3585556 16.3454444,25.3452222 14.5913889,27.9052222 C14.544,27.9526111 14.4966111,28 14.4017778,28 L14.4017778,28 Z" id="Fill-3" stroke="#8492A6" stroke-width="0.5" fill="#8492A6"></path>
                </g>
                <path d="M34,8.162957 C34.4268606,7.94842726 34.8290887,7.79021395 35.2066962,7.68831233 C35.5843037,7.5864107 35.9619055,7.51668959 36.339513,7.47914688 C36.7171205,7.44160418 37.1001948,7.42283311 37.4887475,7.42283311 L38.7611142,7.42283311 C38.8486753,7.42283311 38.9991688,7.42551469 39.2125992,7.43087793 C39.4260295,7.43624118 39.6558741,7.43892276 39.9021398,7.43892276 L40.5834717,7.43892276 L41.0267478,7.43892276 C41.1471444,7.48182871 41.2401768,7.55691299 41.3058476,7.66417785 C41.3715185,7.77144272 41.4207709,7.88406914 41.4536063,8.0020605 C41.4864418,8.12005185 41.5083317,8.24072302 41.5192769,8.36407762 C41.530222,8.48743222 41.5356945,8.58128757 41.5356945,8.64564649 L36.1178749,8.64564649 L36.1178749,12.1049212 L41.9953883,12.1049212 C41.9953883,12.4696217 41.880466,12.756551 41.650618,12.9657174 C41.4207699,13.1748839 41.1334642,13.3384604 40.7886921,13.4564518 C40.4439201,13.5744431 40.0581095,13.652209 39.6312488,13.6897517 C39.2043882,13.7272944 38.7994239,13.7433839 38.4163438,13.7380206 C38.0332638,13.7326574 37.6939694,13.7192495 37.3984505,13.6977965 C37.1029316,13.6763435 36.9059219,13.6656172 36.8074156,13.6656172 L36.8074156,14.0034999 C36.8074156,14.4540123 36.9168654,14.8803838 37.1357683,15.282627 C37.3546712,15.6848703 37.598197,16.0736996 37.8663531,16.4491266 C38.1345091,16.8245536 38.3807712,17.1946119 38.6051467,17.5593124 C38.8295221,17.924013 38.9417082,18.2940712 38.9417082,18.6694983 C38.9417082,18.905481 38.8924558,19.1119628 38.7939495,19.2889498 C38.6954432,19.4659368 38.514851,19.554429 38.2521675,19.554429 C37.9785389,19.554429 37.7076506,19.4149868 37.4394946,19.1360981 C37.1713385,18.8572095 36.9113952,18.4844696 36.6596569,18.0178675 C36.4079186,17.5512653 36.1698652,17.014949 35.9454898,16.4089025 C35.7211143,15.802856 35.5076872,15.1700028 35.305202,14.5103238 C35.1027168,13.8506449 34.9221246,13.196339 34.76342,12.5473866 C34.6047154,11.8984341 34.4706394,11.2923967 34.361188,10.7292561 C34.2517365,10.1661156 34.1641767,9.670023 34.0985058,9.24096353 C34.0328349,8.81190406 34,8.50084061 34,8.30776384 L34,8.162957 Z M43.4565578,13.4886311 C43.4565578,13.4242721 43.4592941,13.3196905 43.4647666,13.1748829 C43.4702392,13.0300753 43.4757117,12.8772252 43.4811843,12.7163279 C43.4866569,12.5554306 43.4921293,12.3998988 43.4976019,12.249728 C43.5030745,12.0995572 43.5058107,11.992294 43.5058107,11.927935 C43.6262073,11.7563112 43.7821733,11.616869 43.9737133,11.5096041 C44.1652534,11.4023393 44.3595268,11.3165287 44.5565394,11.2521697 C44.5893748,11.8314 44.6824072,12.4481638 44.8356392,13.1024795 C44.9888712,13.7567952 45.1530459,14.4137826 45.3281682,15.0734616 C45.5032906,15.7331405 45.6592565,16.3847648 45.7960708,17.028354 C45.9328851,17.6719432 46.0012913,18.2726175 46.0012913,18.8303948 C46.0012913,19.3130867 45.7495567,19.554429 45.2460801,19.554429 C44.939616,19.554429 44.682409,19.4310763 44.4744512,19.1843671 C44.2664935,18.9376579 44.0995825,18.6239128 43.9737133,18.2431226 C43.8478442,17.8623323 43.7466031,17.4386424 43.6699871,16.9720402 C43.5933711,16.5054381 43.5413824,16.0468876 43.5140196,15.5963752 C43.4866567,15.1458627 43.4702392,14.7328992 43.4647666,14.3574721 C43.4592941,13.9820451 43.4565578,13.6924343 43.4565578,13.4886311 L43.4565578,13.4886311 Z M43.6864047,7.45501241 C43.8943625,7.5408243 44.0694822,7.68026654 44.211769,7.8733433 C44.3540559,8.06642006 44.4169896,8.24072286 44.4005719,8.39625692 C44.3841541,8.55179098 44.2610231,8.65905423 44.0311751,8.71804991 C43.801327,8.77704559 43.4182527,8.71536922 42.8819406,8.53301894 C42.8819406,8.2434038 42.9394017,7.99133514 43.0543258,7.7768054 C43.1692498,7.56227567 43.3799407,7.45501241 43.6864047,7.45501241 L43.6864047,7.45501241 Z M46.641579,14.1000377 C46.641579,13.8211491 46.7127214,13.6200305 46.8550083,13.4966759 C46.9972952,13.3733213 47.2271398,13.3116449 47.544549,13.3116449 L47.7087253,13.3116449 C47.7415608,13.4832687 47.7798682,13.6817057 47.8236488,13.906962 C47.8674294,14.1322182 47.9330992,14.3628342 48.0206604,14.5988169 C48.1082216,14.8347996 48.2121989,15.0520077 48.3325955,15.2504477 C48.4529921,15.4488877 48.6007493,15.607101 48.7758716,15.7250924 C48.7868168,15.3496653 48.8825853,14.9876518 49.0631802,14.639041 C49.2437751,14.2904302 49.4681472,13.9793667 49.7363033,13.7058413 C50.0044593,13.4323159 50.2999738,13.2016999 50.6228556,13.0139864 C50.9457373,12.8262729 51.265878,12.7002385 51.5832872,12.6358796 L51.9444752,12.6358796 C52.4698421,12.6358796 52.9185863,12.7511876 53.2907213,12.9818071 C53.6628562,13.2124266 53.9720519,13.5127637 54.2183177,13.8828275 C54.4645834,14.2528913 54.6533843,14.6738996 54.7847261,15.145865 C54.9160678,15.6178304 55.0173089,16.0978335 55.0884523,16.5858886 C55.1595958,17.0739438 55.2033757,17.5459021 55.2197934,18.0017778 C55.2362111,18.4576535 55.2444198,18.8464828 55.2444198,19.1682774 L54.0459325,19.1682774 C53.9802616,18.5246882 53.8981743,17.9079245 53.799668,17.3179677 C53.7668325,17.081985 53.7230526,16.8325979 53.6683269,16.569799 C53.6136012,16.3070001 53.5534038,16.0602946 53.4877329,15.8296751 C53.422062,15.5990556 53.3509196,15.3845291 53.2743036,15.1860891 C53.1976876,14.9876491 53.1101278,14.8187095 53.0116215,14.6792651 C52.9678409,14.6363592 52.9103797,14.5773644 52.8392363,14.502279 C52.7680929,14.4271936 52.6942142,14.3521093 52.6175982,14.2770239 C52.5409822,14.2019385 52.4698398,14.1375805 52.404169,14.0839481 C52.3384981,14.0303157 52.3001907,14.0034999 52.2892455,14.0034999 C51.9608912,13.917688 51.6763217,13.9793643 51.4355285,14.1885308 C51.1947353,14.3976973 50.9813082,14.6792634 50.7952407,15.0332374 C50.6091733,15.3872115 50.4586798,15.7894487 50.3437558,16.2399612 C50.2288317,16.6904736 50.1330632,17.1222082 50.0564471,17.535178 C49.9798311,17.9481477 49.9251062,18.3074796 49.8922708,18.6131845 C49.8594354,18.9188894 49.8375454,19.1039185 49.8266003,19.1682774 C49.5529716,19.3613542 49.2957646,19.4176674 49.0549714,19.3372187 C48.8141782,19.2567701 48.5870699,19.0878305 48.3736395,18.8303948 C48.1602092,18.5729591 47.9686721,18.2511693 47.7990223,17.8650158 C47.6293726,17.4788623 47.4734066,17.0685803 47.3311197,16.6341576 C47.1888328,16.1997349 47.0602293,15.7626371 46.9453053,15.3228511 C46.8303813,14.8830652 46.7291402,14.4754648 46.641579,14.1000377 L46.641579,14.1000377 Z M60.3831396,28.0819434 C60.9960678,28.0819434 61.5433168,27.9719985 62.0249032,27.7521056 C62.5064895,27.5322126 62.9141901,27.2318754 63.248017,26.8510852 C63.5818439,26.4702949 63.8390509,26.0358787 64.0196458,25.5478235 C64.2002407,25.0597684 64.2905368,24.5529495 64.2905368,24.0273516 C64.2905368,23.7591895 64.2768556,23.4052207 64.2494927,22.9654348 C64.2221299,22.5256488 64.1810862,22.0483273 64.1263605,21.5334559 C64.0716347,21.0185846 63.9922836,20.4929946 63.8883047,19.9566703 C63.7843259,19.4203459 63.6557223,18.913527 63.5024903,18.4361984 C63.3492583,17.9588697 63.1604574,17.540543 62.9360819,17.1812057 C62.7117064,16.8218684 62.4517631,16.5671181 62.1562442,16.4169473 C61.8716705,16.631477 61.5925735,16.8272325 61.3189448,17.0042195 C61.0453162,17.1812066 60.7607467,17.3286935 60.4652278,17.4466849 C60.1697089,17.5646763 59.8632495,17.6585316 59.5458403,17.7282538 C59.2284311,17.7979759 58.8891367,17.8328365 58.5279469,17.8328365 C58.0573056,17.8328365 57.6550776,17.7899312 57.3212507,17.7041193 C56.9874238,17.6183074 56.7083268,17.473502 56.4839513,17.2696987 C56.2595758,17.0658955 56.0926649,16.7977374 55.9832134,16.4652163 C55.873762,16.1326952 55.8190371,15.7143685 55.8190371,15.2102236 C55.8190371,14.8562495 55.9065969,14.5103255 56.0817192,14.1724412 C56.2568416,13.8345568 56.4894224,13.5181302 56.7794687,13.2231518 C57.0695151,12.9281735 57.3978645,12.6573337 57.7645268,12.4106245 C58.1311892,12.1639153 58.508791,11.9493888 58.8973437,11.7670385 C59.2858963,11.5846883 59.6689706,11.445246 60.0465781,11.3487076 C60.4241856,11.2521693 60.7607438,11.2039008 61.0562627,11.2039008 C61.3408364,11.2039008 61.5761535,11.2119455 61.762221,11.2280353 C61.9482885,11.244125 62.1069907,11.2870303 62.2383324,11.3567525 C62.3696741,11.4264746 62.4818602,11.5337379 62.5748939,11.6785455 C62.6679277,11.823353 62.7582238,12.0191085 62.8457849,12.2658177 C63.0975232,13.1024836 63.3875652,14.003495 63.7159196,14.9688788 C64.0442739,15.9342626 64.3562059,16.9264478 64.6517248,17.945464 C64.9472437,18.9644803 65.196242,19.991526 65.3987272,21.026632 C65.6012124,22.0617379 65.7024534,23.0619678 65.7024534,24.0273516 C65.7024534,24.8854706 65.5793224,25.6121792 65.3330566,26.2074992 C65.0867909,26.8028192 64.7639139,27.290867 64.3644162,27.6716573 C63.9649184,28.0524476 63.5107017,28.34474 63.0017524,28.5485432 C62.4928032,28.7523465 61.9811254,28.883744 61.4667036,28.9427396 C60.9522818,29.0017353 60.4542851,29.0151432 59.9726988,28.9829638 C59.4911124,28.9507843 59.0752031,28.8891079 58.7249585,28.7979328 C58.3747139,28.7067576 58.1092981,28.602176 57.9287032,28.4841846 C57.7481083,28.3661933 57.7043284,28.2669747 57.7973621,28.1865261 C57.8903958,28.1060774 58.1393942,28.0497642 58.5443645,28.0175848 C58.9493349,27.9854053 59.5622538,28.006858 60.3831396,28.0819434 L60.3831396,28.0819434 Z M60.6129865,12.5554314 C59.8030458,12.7270552 59.1490832,12.9657159 58.6510791,13.2714208 C58.153075,13.5771257 57.7809457,13.9042786 57.5346799,14.2528894 C57.2884142,14.6015002 57.1543382,14.9501058 57.1324479,15.2987167 C57.1105576,15.6473275 57.1762275,15.944983 57.3294595,16.1916922 C57.4826915,16.4384014 57.7043274,16.6234305 57.9943737,16.7467851 C58.2844201,16.8701397 58.6155057,16.8755029 58.9876407,16.7628748 C59.3597756,16.6502467 59.7565311,16.4062228 60.1779192,16.0307957 C60.5993073,15.6553687 61.0234253,15.0975997 61.4502859,14.3574721 C61.4502859,14.1751219 61.4530222,13.9766848 61.4584947,13.7621551 C61.4639673,13.5476254 61.4448136,13.3518699 61.401033,13.1748829 C61.3572524,12.9978959 61.2751651,12.8504089 61.1547685,12.7324175 C61.0343719,12.6144262 60.8537797,12.5554314 60.6129865,12.5554314 L60.6129865,12.5554314 Z M65.6532005,15.0493271 C65.6532005,14.4700968 65.7243429,13.8908752 65.8666298,13.3116449 C66.0089167,12.7324146 66.236025,12.2121878 66.5479616,11.7509489 C66.8598983,11.28971 67.2648625,10.9142885 67.7628666,10.6246734 C68.2608707,10.3350583 68.8655809,10.1902529 69.5770153,10.1902529 C69.9819857,10.1902529 70.3376975,10.2626556 70.6441616,10.4074631 C70.9506256,10.5522707 71.2078327,10.742663 71.4157904,10.9786457 C71.6237482,11.2146284 71.7797142,11.4908313 71.883693,11.8072627 C71.9876719,12.123694 72.0396606,12.4535285 72.0396606,12.7967761 C72.0396606,13.3438269 71.9110571,13.8747801 71.6538462,14.3896514 C71.3966353,14.9045228 71.0518684,15.3577101 70.6195351,15.7492268 C70.1872019,16.1407436 69.6919415,16.4357176 69.1337392,16.6341576 C68.5755368,16.8325976 68.0063978,16.8781845 67.4263051,16.7709196 C67.4372503,17.0819877 67.5439638,17.3313748 67.746449,17.5190883 C67.9489342,17.7068018 68.19246,17.8489257 68.4770338,17.945464 C68.7616075,18.0420024 69.057122,18.1036788 69.3635861,18.130495 C69.6700501,18.1573112 69.9436746,18.1707191 70.1844678,18.1707191 C70.4362061,18.1707191 70.6715232,18.1492665 70.8904261,18.1063605 C71.109329,18.0634546 71.3282286,18.0151861 71.5471315,17.9615537 C71.7660344,17.9079213 71.9876703,17.8596528 72.2120457,17.8167468 C72.4364212,17.7738409 72.6744745,17.7523882 72.9262129,17.7523882 C73.0247192,17.7523882 73.123224,17.7577514 73.2217303,17.7684779 C73.3202366,17.7792044 73.4132689,17.8033386 73.5008301,17.8408813 C73.5883913,17.878424 73.6595336,17.9374188 73.7142594,18.0178675 C73.7689851,18.0983161 73.7963475,18.1975346 73.7963475,18.315526 C73.7963475,18.5193292 73.7197327,18.6882689 73.5665006,18.8223499 C73.4132686,18.956431 73.2189952,19.071739 72.9836746,19.1682774 C72.748354,19.2648158 72.4884107,19.3372185 72.2038369,19.3854877 C71.9192632,19.4337569 71.6429024,19.471299 71.3747464,19.4981152 C71.1065903,19.5249315 70.8603282,19.5410209 70.6359528,19.5463842 C70.4115773,19.5517474 70.2446664,19.554429 70.1352149,19.554429 C69.4347256,19.554429 68.8053893,19.4444842 68.2471869,19.2245912 C67.6889845,19.0046982 67.2183503,18.6989979 66.8352702,18.3074812 C66.4521902,17.9159644 66.1594119,17.444006 65.9569268,16.891592 C65.7544416,16.3391779 65.6532005,15.7250958 65.6532005,15.0493271 L65.6532005,15.0493271 Z M67.3934698,14.0034999 C67.3934698,14.3789269 67.4454585,14.6524482 67.5494374,14.824072 C67.6534162,14.9956958 67.907887,15.0815064 68.3128574,15.0815064 C68.5974312,15.0815064 68.8765282,15.0305563 69.1501568,14.9286547 C69.4237854,14.8267531 69.6727837,14.6846293 69.8971592,14.502279 C70.1215347,14.3199287 70.2993906,14.1054022 70.4307323,13.858693 C70.5620741,13.6119838 70.627744,13.3438257 70.627744,13.0542105 C70.627744,12.8933132 70.6140627,12.7270552 70.5866999,12.5554314 C70.559337,12.3838076 70.5018759,12.2255943 70.4143147,12.0807867 C70.3267535,11.9359791 70.2145675,11.8179896 70.0777532,11.7268144 C69.9409389,11.6356393 69.7630829,11.5900524 69.54418,11.5900524 C69.2158257,11.5900524 68.917575,11.6624551 68.6494189,11.8072627 C68.3812629,11.9520702 68.1541545,12.1397809 67.9680871,12.3704004 C67.7820196,12.6010199 67.6397349,12.8584517 67.5412286,13.1427036 C67.4427223,13.4269555 67.3934698,13.7138847 67.3934698,14.0034999 L67.3934698,14.0034999 Z M74.8142409,12.7645968 C74.8142409,12.6680584 74.8197134,12.5688399 74.8306586,12.4669383 C74.8416037,12.3650367 74.8634937,12.2738629 74.8963291,12.1934143 C74.9291645,12.1129656 74.9811532,12.0459261 75.0522966,11.9922936 C75.1234401,11.9386612 75.2246811,11.9118454 75.3560229,11.9118454 C75.4654743,11.9118454 75.5886054,11.9949744 75.7254197,12.161235 C75.862234,12.3274955 76.0017825,12.5366589 76.1440694,12.7887313 C76.2863562,13.0408037 76.4259047,13.3170066 76.5627191,13.6173483 C76.6995334,13.9176899 76.8199282,14.1938928 76.923907,14.4459652 C77.0278859,14.6980377 77.1127095,14.9152458 77.1783804,15.097596 C77.2440512,15.2799463 77.2823587,15.3764832 77.2933038,15.3872097 C77.4355907,15.0117827 77.5942929,14.6041823 77.7694152,14.1643963 C77.9445376,13.7246104 78.1607009,13.3143284 78.4179118,12.9335381 C78.6751227,12.5527479 78.9815822,12.2336397 79.3372994,11.976204 C79.6930166,11.7187683 80.1280796,11.5900524 80.6425014,11.5900524 C80.9051849,11.5900524 81.1541832,11.6302761 81.3895038,11.7107248 C81.6248244,11.7911734 81.832779,11.909163 82.0133739,12.0646971 C82.1939688,12.2202311 82.3389898,12.4052602 82.4484412,12.61979 C82.5578927,12.8343197 82.6126176,13.0810252 82.6126176,13.3599139 C82.6126176,13.5958966 82.516849,13.7621546 82.325309,13.858693 C82.1337689,13.9552314 81.9176056,14.0034999 81.6768124,14.0034999 L81.512636,14.0034999 L80.8066777,13.3116449 C80.7847874,13.3116449 80.76837,13.3062817 80.7574248,13.2955553 C80.7355345,13.2955553 80.7163808,13.2928737 80.6999631,13.2875104 C80.6835454,13.2821472 80.6643917,13.2794656 80.6425014,13.2794656 C80.2594213,13.2794656 79.9611706,13.3840473 79.7477403,13.5932138 C79.5343099,13.8023803 79.3728715,14.0598121 79.26342,14.365517 C79.1539686,14.6712218 79.0855625,14.9930116 79.0581996,15.330896 C79.0308367,15.6687803 79.0171555,15.9771622 79.0171555,16.2560508 C79.0171555,16.4705806 79.0390455,16.6877886 79.082826,16.9076816 C79.1266066,17.1275746 79.175859,17.3421011 79.2305848,17.5512676 C79.2853105,17.7604341 79.3345629,17.9749606 79.3783435,18.1948536 C79.4221241,18.4147466 79.444014,18.642681 79.444014,18.8786637 C79.444014,19.3291762 79.197752,19.554429 78.7052204,19.554429 C78.4315918,19.554429 78.1470223,19.4123052 77.8515034,19.1280533 C77.5559845,18.8438014 77.2632063,18.4817879 76.9731599,18.0420019 C76.6831136,17.602216 76.4067528,17.1168497 76.1440694,16.5858886 C75.8813859,16.0549275 75.6515413,15.5373823 75.4545287,15.0332374 C75.2575161,14.5290926 75.1015501,14.0732237 74.9866261,13.6656172 C74.8717021,13.2580107 74.8142409,12.9576736 74.8142409,12.7645968 L74.8142409,12.7645968 Z M83.0394761,6.81142642 C83.0394761,6.47890533 83.1024098,6.20538402 83.2282789,5.99085428 C83.3541481,5.77632455 83.5265315,5.60202175 83.7454344,5.46794067 C83.9643373,5.33385958 84.2078631,5.23464107 84.4760192,5.17028215 C84.7441752,5.10592322 85.0232722,5.06033634 85.3133186,5.03352012 C85.6033649,5.00670391 85.8851982,4.99597758 86.1588268,5.00134082 C86.4324554,5.00670407 86.68419,5.00938565 86.914038,5.00938565 C87.3627889,5.00938565 87.8115331,5.05229095 88.2602841,5.13810285 C88.709035,5.22391474 89.1057906,5.3740833 89.4505626,5.58861304 C89.7953347,5.80314277 90.0771679,6.09007199 90.2960708,6.4494093 C90.5149737,6.80874661 90.6244235,7.25657071 90.6244235,7.79289505 C90.6244235,8.26486047 90.528655,8.73413723 90.3371149,9.2007394 C90.1455749,9.66734158 89.8993128,10.1124841 89.5983213,10.5361803 C89.2973299,10.9598766 88.9552992,11.3460243 88.5722191,11.6946351 C88.1891391,12.0432459 87.808801,12.3409015 87.4311935,12.5876107 C87.053586,12.8343199 86.6924017,13.0273937 86.3476296,13.1668381 C86.0028575,13.3062824 85.7155518,13.359914 85.4857037,13.3277346 C85.354362,13.7460675 85.2750109,14.1938917 85.247648,14.6712203 C85.2202852,15.148549 85.2120764,15.6151442 85.2230216,16.0710198 C85.2339667,16.5268955 85.2503842,16.9613117 85.2722745,17.3742815 C85.2941648,17.7872512 85.2750111,18.14122 85.2148128,18.4361984 C85.1546145,18.7311767 85.0424284,18.9510664 84.8782512,19.095874 C84.7140741,19.2406816 84.4623395,19.2862685 84.12304,19.232636 C84.0245337,18.4710555 83.9506551,17.69876 83.901402,16.9157265 C83.8521488,16.1326929 83.8111051,15.3550343 83.7782697,14.5827272 C83.7454343,13.8104202 83.7153356,13.0568958 83.6879727,12.3221315 C83.6606098,11.5873671 83.6223024,10.8874743 83.5730493,10.2224322 C83.5237961,9.55738998 83.45539,8.93526308 83.3678288,8.35603279 C83.2802677,7.77680251 83.1708178,7.26193886 83.0394761,6.81142642 L83.0394761,6.81142642 Z M87.094632,6.39309553 C86.9304548,6.39309553 86.7279727,6.39845869 86.4871795,6.40918517 C86.2463863,6.41991166 86.0138055,6.45477222 85.78943,6.5137679 C85.5650545,6.57276358 85.3762536,6.67466367 85.2230216,6.81947124 C85.0697896,6.96427881 84.9931747,7.17076059 84.9931747,7.43892276 L84.9931747,11.654411 C85.4419256,11.654411 85.9180323,11.5364214 86.4215089,11.3004387 C86.9249856,11.064456 87.3846748,10.7641189 87.8005903,10.3994183 C88.2165058,10.0347178 88.5612727,9.62175421 88.8349013,9.16051528 C89.1085299,8.69927635 89.2453422,8.2434075 89.2453422,7.79289505 C89.2453422,7.46037396 89.1824085,7.20294214 89.0565394,7.02059186 C88.9306702,6.83824159 88.7664955,6.69879935 88.5640103,6.60226097 C88.3615252,6.50572259 88.1344168,6.4467278 87.8826785,6.42527482 C87.6309401,6.40382185 87.3682606,6.39309553 87.094632,6.39309553 L87.094632,6.39309553 Z M91.2975466,12.7645968 C91.2975466,12.6680584 91.3030191,12.5688399 91.3139642,12.4669383 C91.3249094,12.3650367 91.3467993,12.2738629 91.3796348,12.1934143 C91.4124702,12.1129656 91.4644588,12.0459261 91.5356023,11.9922936 C91.6067457,11.9386612 91.7079868,11.9118454 91.8393285,11.9118454 C91.94878,11.9118454 92.071911,11.9949744 92.2087253,12.161235 C92.3455396,12.3274955 92.4850881,12.5366589 92.627375,12.7887313 C92.7696619,13.0408037 92.9092104,13.3170066 93.0460247,13.6173483 C93.182839,13.9176899 93.3032338,14.1938928 93.4072127,14.4459652 C93.5111916,14.6980377 93.5960152,14.9152458 93.661686,15.097596 C93.7273569,15.2799463 93.7656643,15.3764832 93.7766095,15.3872097 C93.9188964,15.0117827 94.0775986,14.6041823 94.2527209,14.1643963 C94.4278432,13.7246104 94.6440066,13.3143284 94.9012175,12.9335381 C95.1584284,12.5527479 95.4648878,12.2336397 95.8206051,11.976204 C96.1763223,11.7187683 96.6113852,11.5900524 97.125807,11.5900524 C97.3884905,11.5900524 97.6374888,11.6302761 97.8728094,11.7107248 C98.1081301,11.7911734 98.3160847,11.909163 98.4966796,12.0646971 C98.6772745,12.2202311 98.8222955,12.4052602 98.9317469,12.61979 C99.0411984,12.8343197 99.0959233,13.0810252 99.0959233,13.3599139 C99.0959233,13.5958966 99.0001547,13.7621546 98.8086146,13.858693 C98.6170746,13.9552314 98.4009112,14.0034999 98.1601181,14.0034999 L97.9959417,14.0034999 L97.2899834,13.3116449 C97.2680931,13.3116449 97.2516756,13.3062817 97.2407305,13.2955553 C97.2188402,13.2955553 97.1996865,13.2928737 97.1832688,13.2875104 C97.1668511,13.2821472 97.1476973,13.2794656 97.125807,13.2794656 C96.742727,13.2794656 96.4444763,13.3840473 96.2310459,13.5932138 C96.0176156,13.8023803 95.8561771,14.0598121 95.7467257,14.365517 C95.6372742,14.6712218 95.5688681,14.9930116 95.5415053,15.330896 C95.5141424,15.6687803 95.5004612,15.9771622 95.5004612,16.2560508 C95.5004612,16.4705806 95.5223511,16.6877886 95.5661317,16.9076816 C95.6099123,17.1275746 95.6591647,17.3421011 95.7138904,17.5512676 C95.7686162,17.7604341 95.8178686,17.9749606 95.8616491,18.1948536 C95.9054297,18.4147466 95.9273197,18.642681 95.9273197,18.8786637 C95.9273197,19.3291762 95.6810576,19.554429 95.1885261,19.554429 C94.9148975,19.554429 94.630328,19.4123052 94.3348091,19.1280533 C94.0392902,18.8438014 93.7465119,18.4817879 93.4564656,18.0420019 C93.1664193,17.602216 92.8900585,17.1168497 92.627375,16.5858886 C92.3646915,16.0549275 92.134847,15.5373823 91.9378343,15.0332374 C91.7408217,14.5290926 91.5848558,14.0732237 91.4699317,13.6656172 C91.3550077,13.2580107 91.2975466,12.9576736 91.2975466,12.7645968 L91.2975466,12.7645968 Z M100.376499,13.4886311 C100.376499,13.4242721 100.379235,13.3196905 100.384708,13.1748829 C100.39018,13.0300753 100.395653,12.8772252 100.401125,12.7163279 C100.406598,12.5554306 100.41207,12.3998988 100.417543,12.249728 C100.423015,12.0995572 100.425752,11.992294 100.425752,11.927935 C100.546148,11.7563112 100.702114,11.616869 100.893654,11.5096041 C101.085194,11.4023393 101.279468,11.3165287 101.47648,11.2521697 C101.509316,11.8314 101.602348,12.4481638 101.75558,13.1024795 C101.908812,13.7567952 102.072987,14.4137826 102.248109,15.0734616 C102.423232,15.7331405 102.579197,16.3847648 102.716012,17.028354 C102.852826,17.6719432 102.921232,18.2726175 102.921232,18.8303948 C102.921232,19.3130867 102.669498,19.554429 102.166021,19.554429 C101.859557,19.554429 101.60235,19.4310763 101.394392,19.1843671 C101.186434,18.9376579 101.019523,18.6239128 100.893654,18.2431226 C100.767785,17.8623323 100.666544,17.4386424 100.589928,16.9720402 C100.513312,16.5054381 100.461323,16.0468876 100.433961,15.5963752 C100.406598,15.1458627 100.39018,14.7328992 100.384708,14.3574721 C100.379235,13.9820451 100.376499,13.6924343 100.376499,13.4886311 L100.376499,13.4886311 Z M100.606346,7.45501241 C100.814303,7.5408243 100.989423,7.68026654 101.13171,7.8733433 C101.273997,8.06642006 101.336931,8.24072286 101.320513,8.39625692 C101.304095,8.55179098 101.180964,8.65905423 100.951116,8.71804991 C100.721268,8.77704559 100.338194,8.71536922 99.8018816,8.53301894 C99.8018816,8.2434038 99.8593427,7.99133514 99.9742667,7.7768054 C100.089191,7.56227567 100.299882,7.45501241 100.606346,7.45501241 L100.606346,7.45501241 Z M103.56152,14.1000377 C103.56152,13.8211491 103.632662,13.6200305 103.774949,13.4966759 C103.917236,13.3733213 104.147081,13.3116449 104.46449,13.3116449 L104.628666,13.3116449 C104.661502,13.4832687 104.699809,13.6817057 104.74359,13.906962 C104.78737,14.1322182 104.85304,14.3628342 104.940601,14.5988169 C105.028163,14.8347996 105.13214,15.0520077 105.252536,15.2504477 C105.372933,15.4488877 105.52069,15.607101 105.695813,15.7250924 C105.706758,15.3496653 105.802526,14.9876518 105.983121,14.639041 C106.163716,14.2904302 106.388088,13.9793667 106.656244,13.7058413 C106.9244,13.4323159 107.219915,13.2016999 107.542797,13.0139864 C107.865678,12.8262729 108.185819,12.7002385 108.503228,12.6358796 L108.864416,12.6358796 C109.389783,12.6358796 109.838527,12.7511876 110.210662,12.9818071 C110.582797,13.2124266 110.891993,13.5127637 111.138259,13.8828275 C111.384524,14.2528913 111.573325,14.6738996 111.704667,15.145865 C111.836009,15.6178304 111.93725,16.0978335 112.008393,16.5858886 C112.079537,17.0739438 112.123317,17.5459021 112.139734,18.0017778 C112.156152,18.4576535 112.164361,18.8464828 112.164361,19.1682774 L110.965873,19.1682774 C110.900203,18.5246882 110.818115,17.9079245 110.719609,17.3179677 C110.686773,17.081985 110.642994,16.8325979 110.588268,16.569799 C110.533542,16.3070001 110.473345,16.0602946 110.407674,15.8296751 C110.342003,15.5990556 110.270861,15.3845291 110.194245,15.1860891 C110.117629,14.9876491 110.030069,14.8187095 109.931562,14.6792651 C109.887782,14.6363592 109.830321,14.5773644 109.759177,14.502279 C109.688034,14.4271936 109.614155,14.3521093 109.537539,14.2770239 C109.460923,14.2019385 109.389781,14.1375805 109.32411,14.0839481 C109.258439,14.0303157 109.220132,14.0034999 109.209186,14.0034999 C108.880832,13.917688 108.596263,13.9793643 108.355469,14.1885308 C108.114676,14.3976973 107.901249,14.6792634 107.715182,15.0332374 C107.529114,15.3872115 107.378621,15.7894487 107.263697,16.2399612 C107.148773,16.6904736 107.053004,17.1222082 106.976388,17.535178 C106.899772,17.9481477 106.845047,18.3074796 106.812212,18.6131845 C106.779376,18.9188894 106.757486,19.1039185 106.746541,19.1682774 C106.472913,19.3613542 106.215706,19.4176674 105.974912,19.3372187 C105.734119,19.2567701 105.507011,19.0878305 105.293581,18.8303948 C105.08015,18.5729591 104.888613,18.2511693 104.718963,17.8650158 C104.549314,17.4788623 104.393348,17.0685803 104.251061,16.6341576 C104.108774,16.1997349 103.98017,15.7626371 103.865246,15.3228511 C103.750322,14.8830652 103.649081,14.4754648 103.56152,14.1000377 L103.56152,14.1000377 Z M112.706143,11.4130662 C112.706143,11.3808868 112.711615,11.354071 112.72256,11.332618 C112.72256,11.311165 112.728033,11.2843492 112.738978,11.2521697 C112.782759,11.1985373 112.848429,11.1288162 112.93599,11.0430043 C113.023551,10.9571924 113.078276,10.9142871 113.100166,10.9142871 L116.400111,10.9142871 C116.400111,10.7962957 116.383693,10.608585 116.350858,10.3511494 C116.318022,10.0937137 116.287924,9.80946604 116.260561,9.49839792 C116.233198,9.18732981 116.224989,8.86285845 116.235934,8.52497412 C116.246879,8.18708978 116.293396,7.88138949 116.375484,7.60786408 C116.457573,7.33433867 116.588913,7.10908582 116.769507,6.93209879 C116.950102,6.75511176 117.204573,6.66661957 117.532928,6.66661957 C117.532928,7.74999474 117.609542,8.61882713 117.762774,9.27314283 C117.916006,9.92745852 118.121225,10.4315958 118.378436,10.7855699 C118.635647,11.139544 118.928425,11.37016 119.256779,11.4774248 C119.585134,11.5846897 119.921692,11.6302766 120.266464,11.6141869 C120.611236,11.5980971 120.947794,11.5471471 121.276148,11.4613352 C121.604503,11.3755233 121.897281,11.3165285 122.154492,11.284349 C122.411703,11.2521696 122.616921,11.2763038 122.770153,11.3567525 C122.923385,11.4372011 123,11.6275934 123,11.927935 C123,12.1531913 122.948011,12.3140861 122.844032,12.4106245 C122.740054,12.5071629 122.540308,12.5822472 122.244789,12.6358796 C122.157228,12.6466061 122.012207,12.6653772 121.809721,12.6921934 C121.607236,12.7190096 121.380128,12.7431438 121.12839,12.7645968 C120.876651,12.7860498 120.608499,12.810184 120.323925,12.8370002 C120.039352,12.8638165 119.7712,12.8879507 119.519461,12.9094037 C119.267723,12.9308566 119.037878,12.9442646 118.829921,12.9496278 C118.621963,12.954991 118.468733,12.9576726 118.370227,12.9576726 C118.370227,13.0113051 118.364754,13.1024788 118.353809,13.2311967 C118.342864,13.3599145 118.337392,13.4457251 118.337392,13.4886311 C118.337392,13.9605965 118.414006,14.4191469 118.567239,14.8642961 C118.720471,15.3094453 118.887381,15.7519063 119.067976,16.1916922 C119.248571,16.6314782 119.415482,17.0712575 119.568714,17.5110435 C119.721946,17.9508295 119.798561,18.4066983 119.798561,18.8786637 C119.798561,18.9644756 119.790352,19.0529678 119.773935,19.1441429 C119.757517,19.2353181 119.724682,19.3157655 119.675429,19.3854877 C119.626176,19.4552099 119.555033,19.5088415 119.462,19.5463842 C119.368966,19.5839269 119.240362,19.5758821 119.076185,19.5222497 C118.66027,19.4149848 118.351074,19.1843688 118.148589,18.8303948 C117.946104,18.4764207 117.79561,18.0554124 117.697104,17.5673573 C117.598598,17.0793021 117.532928,16.5617569 117.500092,16.0147061 C117.467257,15.4676552 117.415268,14.9554732 117.344125,14.4781445 C117.272981,14.0008159 117.160795,13.5932155 117.007563,13.2553311 C116.854331,12.9174468 116.608069,12.710965 116.26877,12.6358796 L113.100166,11.927935 C113.056385,11.927935 112.990716,11.8823482 112.903154,11.791173 C112.815593,11.6999979 112.760868,11.6329583 112.738978,11.5900524 C112.728033,11.5685994 112.72256,11.5417836 112.72256,11.5096041 C112.711615,11.4881512 112.706143,11.4559722 112.706143,11.4130662 L112.706143,11.4130662 Z" id="FingerPrint-Copy" stroke="#8492A6" stroke-width="1.11000001" fill="#8492A6"></path>
            </g>
        </g>
    </g>
</svg>