<?xml version="1.0" encoding="UTF-8" standalone="no"?>
<svg width="18px" height="22px" viewBox="0 0 18 22" version="1.1" xmlns="http://www.w3.org/2000/svg" xmlns:xlink="http://www.w3.org/1999/xlink">
    <!-- Generator: Sketch 39.1 (31720) - http://www.bohemiancoding.com/sketch -->
    <title>padlock-blue</title>
    <desc>Created with Sketch.</desc>
    <defs>
        <polygon id="path-1" points="8.89886842 0.0536989247 0.0142105263 0.0536989247 0.0142105263 21.7636774 17.7835263 21.7636774 17.7835263 0.0536989247 8.89886842 0.0536989247"></polygon>
    </defs>
    <g id="Page-1" stroke="none" stroke-width="1" fill="none" fill-rule="evenodd">
        <g id="Войти" transform="translate(-339.000000, -345.000000)">
            <g id="padlock-blue" transform="translate(339.000000, 345.000000)">
                <mask id="mask-2" fill="white">
                    <use xlink:href="#path-1"></use>
                </mask>
                <g id="Clip-2"></g>
                <path d="M17.3505789,10.3532473 C17.0628158,10.065828 16.713,9.92176344 16.3013684,9.92176344 L15.8073158,9.92176344 L15.8073158,6.96098925 C15.8073158,5.06946237 15.1282895,3.44595699 13.7702368,2.08952688 C12.411,0.731913978 10.7855526,0.0536989247 8.89176316,0.0536989247 C6.99797368,0.0536989247 5.37157895,0.731913978 4.01328947,2.08952688 C2.65523684,3.44595699 1.97621053,5.06946237 1.97621053,6.96098925 L1.97621053,9.92176344 L1.48215789,9.92176344 C1.07052632,9.92176344 0.720710526,10.065828 0.432,10.3532473 C0.144236842,10.6416129 0,10.9910108 0,11.4021505 L0,20.2832903 C0,20.6944301 0.144236842,21.043828 0.432,21.331957 C0.720710526,21.6193763 1.07052632,21.7636774 1.48215789,21.7636774 L16.3013684,21.7636774 C16.713,21.7636774 17.0628158,21.6193763 17.3515263,21.331957 C17.6392895,21.043828 17.7835263,20.6944301 17.7835263,20.2832903 L17.7835263,11.4021505 C17.7835263,10.9910108 17.6392895,10.6416129 17.3505789,10.3532473 L17.3505789,10.3532473 Z M12.8432368,9.92176344 L4.93934211,9.92176344 L4.93934211,6.96098925 C4.93934211,5.87163441 5.32610526,4.94101075 6.09773684,4.17053763 C6.86936842,3.39982796 7.80110526,3.01447312 8.89176316,3.01447312 C9.98242105,3.01447312 10.9141579,3.39982796 11.6857895,4.17053763 C12.4574211,4.94101075 12.8432368,5.87163441 12.8432368,6.96098925 L12.8432368,9.92176344 Z" id="Fill-1" fill="#00B5FF" mask="url(#mask-2)"></path>
            </g>
        </g>
    </g>
</svg>