<?xml version="1.0" encoding="UTF-8" standalone="no"?>
<svg width="1176px" height="230px" viewBox="0 0 1176 230" version="1.1" xmlns="http://www.w3.org/2000/svg" xmlns:xlink="http://www.w3.org/1999/xlink">
    <!-- Generator: Sketch 39.1 (31720) - http://www.bohemiancoding.com/sketch -->
    <title>subscribe</title>
    <desc>Created with Sketch.</desc>
    <defs></defs>
    <g id="Page-1" stroke="none" stroke-width="1" fill="none" fill-rule="evenodd">
        <g id="Контакты-Copy" transform="translate(-95.000000, -1182.000000)" fill="#E0E6ED">
            <path d="M145.625,1399.00195 C148.437514,1397.06835 151.821269,1394.56349 155.776367,1391.4873 C159.731465,1388.41112 163.730449,1385.11525 167.773438,1381.59961 C171.816426,1378.08397 175.595686,1374.3926 179.111328,1370.52539 C182.626971,1366.65818 185.395498,1362.92287 187.416992,1359.31934 C189.438487,1355.7158 190.449219,1352.33205 190.449219,1349.16797 C190.449219,1346.00389 188.867203,1343.3672 185.703125,1341.25781 C180.078097,1341.25781 173.925815,1341.47754 167.246094,1341.91699 C160.566373,1342.35645 153.886752,1342.53223 147.207031,1342.44434 C140.52731,1342.35644 134.067414,1341.78516 127.827148,1340.73047 C121.586883,1339.67578 116.005884,1337.7422 111.083984,1334.92969 C106.162085,1332.11717 102.250991,1328.11819 99.3505859,1322.93262 C96.4501808,1317.74704 95,1311.11137 95,1303.02539 C95,1293.53316 96.8017398,1284.96391 100.405273,1277.31738 C104.008807,1269.67086 108.798798,1262.90335 114.775391,1257.01465 C120.751983,1251.12595 127.475549,1245.94045 134.946289,1241.45801 C142.41703,1236.97556 149.931603,1233.15236 157.490234,1229.98828 C162.06057,1231.21876 166.279278,1233.416 170.146484,1236.58008 C174.013691,1239.74416 177.353502,1243.25975 180.166016,1247.12695 C178.935541,1250.99416 176.518573,1253.98241 172.915039,1256.0918 C169.311505,1258.20118 165.180687,1260.04687 160.522461,1261.62891 C155.864235,1263.21095 150.986354,1264.88085 145.888672,1266.63867 C140.79099,1268.39649 136.176778,1270.72557 132.045898,1273.62598 C127.915018,1276.52638 124.443373,1280.30564 121.630859,1284.96387 C118.818345,1289.62209 117.412109,1295.73043 117.412109,1303.28906 C117.412109,1308.91409 118.818345,1313.04491 121.630859,1315.68164 C124.443373,1318.31837 128.134743,1320.12011 132.705078,1321.08691 C137.275413,1322.05372 142.460908,1322.40527 148.261719,1322.1416 C154.062529,1321.87793 159.995087,1321.48242 166.05957,1320.95508 C172.124054,1320.42773 178.056612,1320.12012 183.857422,1320.03223 C189.658232,1319.94434 194.843727,1320.64745 199.414062,1322.1416 C203.984398,1323.63575 207.631822,1326.05272 210.356445,1329.39258 C213.081068,1332.73244 214.443359,1337.65426 214.443359,1344.1582 C214.443359,1346.97072 213.520517,1350.5742 211.674805,1354.96875 C209.829092,1359.3633 207.368179,1364.0654 204.291992,1369.0752 C201.215805,1374.08499 197.612325,1379.05076 193.481445,1383.97266 C189.350565,1388.89456 185.043968,1393.33299 180.561523,1397.28809 C176.079079,1401.24318 171.596702,1404.4951 167.114258,1407.04395 C162.631814,1409.59279 158.457051,1410.86719 154.589844,1410.86719 C150.898419,1410.86719 148.481451,1409.54884 147.338867,1406.91211 C146.196283,1404.27538 145.625,1401.63869 145.625,1399.00195 L145.625,1399.00195 Z M224.990234,1303.28906 C224.990234,1302.23437 225.034179,1300.34474 225.12207,1297.62012 C225.209961,1294.89549 225.253906,1292.03908 225.253906,1289.05078 C225.253906,1286.06249 225.297851,1283.29396 225.385742,1280.74512 C225.473633,1278.19628 225.517578,1276.39454 225.517578,1275.33984 C226.748053,1273.23046 228.198234,1271.16505 229.868164,1269.14355 C231.538094,1267.12206 233.295889,1265.71582 235.141602,1264.9248 C236.987314,1264.13379 239.008778,1264.00195 241.206055,1264.5293 C243.403331,1265.05664 245.64452,1266.81444 247.929688,1269.80273 L247.929688,1271.91211 L247.929688,1275.33984 C247.753905,1276.21875 247.402346,1278.28416 246.875,1281.53613 C246.347654,1284.7881 245.732425,1288.34764 245.029297,1292.21484 C244.326168,1296.08205 243.666995,1299.64159 243.051758,1302.89355 C242.43652,1306.14552 242.128906,1308.21093 242.128906,1309.08984 C242.128906,1312.4297 242.480465,1316.60447 243.183594,1321.61426 C243.886722,1326.62405 244.897454,1331.85349 246.21582,1337.30273 C247.534186,1342.75198 249.204091,1348.20114 251.225586,1353.65039 C253.24708,1359.09964 255.664048,1363.97752 258.476562,1368.28418 C261.289077,1372.59084 264.409163,1376.15038 267.836914,1378.96289 C271.264666,1381.7754 275.263649,1383.18164 279.833984,1383.18164 C285.459013,1383.18164 290.424783,1381.68751 294.731445,1378.69922 C299.038107,1375.71092 302.773422,1371.84377 305.9375,1367.09766 C309.101578,1362.35154 311.694326,1356.99026 313.71582,1351.01367 C315.737315,1345.03708 317.363275,1339.01663 318.59375,1332.95215 C319.824225,1326.88766 320.703122,1321.043 321.230469,1315.41797 C321.757815,1309.79294 322.021484,1304.87111 322.021484,1300.65234 C322.021484,1296.43357 321.71387,1292.43459 321.098633,1288.65527 C320.483395,1284.87596 319.736333,1281.14064 318.857422,1277.44922 C317.978511,1273.75779 317.231448,1270.11037 316.616211,1266.50684 C316.000973,1262.9033 315.693359,1259.25588 315.693359,1255.56445 C315.693359,1252.22459 316.879871,1249.85157 319.25293,1248.44531 C321.625988,1247.03906 324.306626,1246.33594 327.294922,1246.33594 C330.986347,1246.33594 333.974598,1247.43456 336.259766,1249.63184 C338.544933,1251.82911 340.346673,1254.59764 341.665039,1257.9375 C342.983405,1261.27736 343.862302,1265.10056 344.301758,1269.40723 C344.741213,1273.71389 344.960938,1277.97654 344.960938,1282.19531 C344.960938,1286.41408 344.873048,1290.41307 344.697266,1294.19238 C344.521483,1297.9717 344.433594,1301.00389 344.433594,1303.28906 C344.433594,1309.26565 343.994145,1316.03317 343.115234,1323.5918 C342.236324,1331.15043 340.698253,1338.92867 338.500977,1346.92676 C336.3037,1354.92484 333.579118,1362.79098 330.327148,1370.52539 C327.075179,1378.2598 323.12014,1385.15915 318.461914,1391.22363 C313.803688,1397.28812 308.442413,1402.166 302.37793,1405.85742 C296.313446,1409.54885 289.501991,1411.39453 281.943359,1411.39453 C274.033164,1411.39453 267.089874,1409.5049 261.113281,1405.72559 C255.136689,1401.94627 250.083028,1396.93655 245.952148,1390.69629 C241.821268,1384.45602 238.349623,1377.3809 235.537109,1369.4707 C232.724595,1361.56051 230.571297,1353.65043 229.077148,1345.74023 C227.583,1337.83004 226.528323,1330.13969 225.913086,1322.66895 C225.297848,1315.1982 224.990234,1308.73831 224.990234,1303.28906 L224.990234,1303.28906 Z M400.332031,1399.5293 C394.882785,1383.70891 389.741235,1368.89948 384.907227,1355.10059 C380.073218,1341.30169 375.85451,1327.76667 372.250977,1314.49512 C368.647443,1301.22357 365.791026,1287.73249 363.681641,1274.02148 C361.572255,1260.31048 360.517578,1245.63289 360.517578,1229.98828 C360.517578,1228.75781 360.561523,1226.51662 360.649414,1223.26465 C360.737305,1220.01268 360.78125,1216.62892 360.78125,1213.11328 C360.78125,1209.59764 360.825195,1206.21388 360.913086,1202.96191 C361.000977,1199.70994 361.044922,1197.46876 361.044922,1196.23828 C362.626961,1192.72264 365.395488,1189.47072 369.350586,1186.48242 C373.305684,1183.49413 377.304667,1182 381.347656,1182 C381.347656,1195.00788 381.523436,1208.85051 381.875,1223.52832 C382.226564,1238.20613 383.325186,1252.83977 385.170898,1267.42969 C387.016611,1282.0196 390.004862,1296.30169 394.135742,1310.27637 C398.266622,1324.25105 404.11129,1337.039 411.669922,1348.64062 C411.845704,1344.42185 412.021483,1339.7637 412.197266,1334.66602 C412.373048,1329.56833 412.856441,1324.47073 413.647461,1319.37305 C414.438481,1314.27537 415.712882,1309.35354 417.470703,1304.60742 C419.228524,1299.8613 421.821272,1295.6426 425.249023,1291.95117 C428.676775,1288.25975 433.159152,1285.35939 438.696289,1283.25 C444.233426,1281.14061 451.220661,1280.17383 459.658203,1280.34961 C467.216835,1280.34961 474.02829,1281.75585 480.092773,1284.56836 C486.157257,1287.38087 491.254862,1291.20408 495.385742,1296.03809 C499.516622,1300.87209 502.680653,1306.49704 504.87793,1312.91309 C507.075206,1319.32913 508.173828,1326.14059 508.173828,1333.34766 C508.173828,1343.01567 505.800805,1352.50777 501.054688,1361.82422 C496.30857,1371.14067 490.024453,1379.4902 482.202148,1386.87305 C474.379844,1394.2559 465.634814,1400.18845 455.966797,1404.6709 C446.29878,1409.15334 436.455128,1411.39453 426.435547,1411.39453 C421.337865,1411.39453 416.416039,1410.47169 411.669922,1408.62598 C406.923804,1406.78026 403.144545,1403.74807 400.332031,1399.5293 L400.332031,1399.5293 Z M462.822266,1303.28906 C459.306623,1305.22267 455.615254,1307.5078 451.748047,1310.14453 C447.88084,1312.78126 444.321305,1316.86814 441.069336,1322.40527 C437.817367,1327.94241 435.04884,1335.45698 432.763672,1344.94922 C430.478504,1354.44145 429.072268,1367.00969 428.544922,1382.6543 C428.896486,1382.6543 429.819328,1382.74219 431.313477,1382.91797 C432.807625,1383.09375 433.818357,1383.18164 434.345703,1383.18164 C439.091821,1383.18164 444.49704,1381.68751 450.561523,1378.69922 C456.626007,1375.71092 462.51462,1372.01955 468.227539,1367.625 C473.940458,1363.23045 478.906229,1358.35257 483.125,1352.99121 C487.343771,1347.62986 489.892574,1342.48831 490.771484,1337.56641 C491.298831,1334.57811 490.683603,1331.15041 488.925781,1327.2832 C487.16796,1323.416 484.838882,1319.68068 481.938477,1316.07715 C479.038071,1312.47361 475.874041,1309.44142 472.446289,1306.98047 C469.018538,1304.51952 465.810562,1303.28906 462.822266,1303.28906 L462.822266,1303.28906 Z M574.882812,1399.00195 C577.695327,1397.06835 581.079082,1394.56349 585.03418,1391.4873 C588.989278,1388.41112 592.988261,1385.11525 597.03125,1381.59961 C601.074239,1378.08397 604.853498,1374.3926 608.369141,1370.52539 C611.884783,1366.65818 614.65331,1362.92287 616.674805,1359.31934 C618.696299,1355.7158 619.707031,1352.33205 619.707031,1349.16797 C619.707031,1346.00389 618.125016,1343.3672 614.960938,1341.25781 C609.335909,1341.25781 603.183627,1341.47754 596.503906,1341.91699 C589.824185,1342.35645 583.144565,1342.53223 576.464844,1342.44434 C569.785123,1342.35644 563.325227,1341.78516 557.084961,1340.73047 C550.844695,1339.67578 545.263696,1337.7422 540.341797,1334.92969 C535.419897,1332.11717 531.508804,1328.11819 528.608398,1322.93262 C525.707993,1317.74704 524.257812,1311.11137 524.257812,1303.02539 C524.257812,1293.53316 526.059552,1284.96391 529.663086,1277.31738 C533.26662,1269.67086 538.056611,1262.90335 544.033203,1257.01465 C550.009796,1251.12595 556.733361,1245.94045 564.204102,1241.45801 C571.674842,1236.97556 579.189415,1233.15236 586.748047,1229.98828 C591.318382,1231.21876 595.53709,1233.416 599.404297,1236.58008 C603.271504,1239.74416 606.611314,1243.25975 609.423828,1247.12695 C608.193353,1250.99416 605.776385,1253.98241 602.172852,1256.0918 C598.569318,1258.20118 594.4385,1260.04687 589.780273,1261.62891 C585.122047,1263.21095 580.244166,1264.88085 575.146484,1266.63867 C570.048803,1268.39649 565.434591,1270.72557 561.303711,1273.62598 C557.172831,1276.52638 553.701186,1280.30564 550.888672,1284.96387 C548.076158,1289.62209 546.669922,1295.73043 546.669922,1303.28906 C546.669922,1308.91409 548.076158,1313.04491 550.888672,1315.68164 C553.701186,1318.31837 557.392555,1320.12011 561.962891,1321.08691 C566.533226,1322.05372 571.718721,1322.40527 577.519531,1322.1416 C583.320342,1321.87793 589.252899,1321.48242 595.317383,1320.95508 C601.381866,1320.42773 607.314424,1320.12012 613.115234,1320.03223 C618.916045,1319.94434 624.10154,1320.64745 628.671875,1322.1416 C633.24221,1323.63575 636.889635,1326.05272 639.614258,1329.39258 C642.338881,1332.73244 643.701172,1337.65426 643.701172,1344.1582 C643.701172,1346.97072 642.77833,1350.5742 640.932617,1354.96875 C639.086905,1359.3633 636.625992,1364.0654 633.549805,1369.0752 C630.473617,1374.08499 626.870138,1379.05076 622.739258,1383.97266 C618.608378,1388.89456 614.30178,1393.33299 609.819336,1397.28809 C605.336892,1401.24318 600.854515,1404.4951 596.37207,1407.04395 C591.889626,1409.59279 587.714863,1410.86719 583.847656,1410.86719 C580.156232,1410.86719 577.739264,1409.54884 576.59668,1406.91211 C575.454096,1404.27538 574.882812,1401.63869 574.882812,1399.00195 L574.882812,1399.00195 Z M648.974609,1331.50195 C648.974609,1324.1191 650.60057,1316.38481 653.852539,1308.29883 C657.104508,1300.21285 661.455051,1292.87406 666.904297,1286.28223 C672.353543,1279.6904 678.63766,1274.19729 685.756836,1269.80273 C692.876012,1265.40818 700.390585,1263.21094 708.300781,1263.21094 C712.34377,1263.21094 716.386699,1263.91406 720.429688,1265.32031 C724.472676,1266.72657 728.120101,1268.74803 731.37207,1271.38477 C734.62404,1274.0215 737.260732,1277.18553 739.282227,1280.87695 C741.303721,1284.56838 742.314453,1288.6992 742.314453,1293.26953 C739.150375,1293.26953 736.293958,1292.91797 733.745117,1292.21484 C731.196276,1291.51172 728.691419,1290.67676 726.230469,1289.70996 C723.769519,1288.74316 721.352551,1287.90821 718.979492,1287.20508 C716.606433,1286.50195 714.013686,1286.15039 711.201172,1286.15039 C703.994105,1286.15039 698.149436,1287.95213 693.666992,1291.55566 C689.184548,1295.1592 685.625013,1299.68552 682.988281,1305.13477 C680.351549,1310.58401 678.54981,1316.42868 677.583008,1322.66895 C676.616206,1328.90921 676.132812,1334.75388 676.132812,1340.20312 C676.132812,1341.08204 676.176757,1342.75194 676.264648,1345.21289 C676.35254,1347.67384 676.440429,1350.26659 676.52832,1352.99121 C676.616211,1355.71583 676.704101,1358.30858 676.791992,1360.76953 C676.879883,1363.23048 677.011718,1364.90039 677.1875,1365.7793 C679.121103,1369.99807 681.010733,1373.24999 682.856445,1375.53516 C684.702158,1377.82032 686.679677,1379.53417 688.789062,1380.67676 C690.898448,1381.81934 693.183581,1382.52246 695.644531,1382.78613 C698.105481,1383.04981 701.005843,1383.18164 704.345703,1383.18164 C708.916038,1383.18164 712.915022,1382.47852 716.342773,1381.07227 C719.770525,1379.66601 722.978501,1377.9961 725.966797,1376.0625 C728.955093,1374.1289 731.767565,1371.9756 734.404297,1369.60254 C737.041029,1367.22948 739.809556,1365.03224 742.709961,1363.01074 C745.610366,1360.98925 748.774397,1359.31934 752.202148,1358.00098 C755.6299,1356.68261 759.540994,1356.02344 763.935547,1356.02344 C763.935547,1364.63676 762.397476,1372.28317 759.321289,1378.96289 C756.245102,1385.64261 751.938504,1391.35545 746.401367,1396.10156 C740.86423,1400.84768 734.360389,1404.4951 726.889648,1407.04395 C719.418908,1409.59279 711.289106,1410.86719 702.5,1410.86719 C694.23824,1410.86719 686.811556,1408.05472 680.219727,1402.42969 C673.627897,1396.80466 668.002953,1389.90531 663.344727,1381.73145 C658.6865,1373.55758 655.126965,1364.90044 652.666016,1355.75977 C650.205066,1346.61909 648.974609,1338.53324 648.974609,1331.50195 L648.974609,1331.50195 Z M778.701172,1300.125 C778.701172,1298.54296 778.789062,1296.917 778.964844,1295.24707 C779.140626,1293.57714 779.492185,1292.08301 780.019531,1290.76465 C780.546878,1289.44628 781.38183,1288.34766 782.524414,1287.46875 C783.666998,1286.58984 785.292958,1286.15039 787.402344,1286.15039 C789.160165,1286.15039 791.137684,1287.51268 793.334961,1290.2373 C795.532238,1292.96193 797.773426,1296.38963 800.058594,1300.52051 C802.343761,1304.65139 804.58495,1309.17771 806.782227,1314.09961 C808.979503,1319.02151 810.913078,1323.54783 812.583008,1327.67871 C814.252938,1331.80959 815.615229,1335.36913 816.669922,1338.35742 C817.724615,1341.34572 818.339843,1342.92773 818.515625,1343.10352 C820.800793,1336.95114 823.349595,1330.27152 826.162109,1323.06445 C828.974623,1315.85739 832.446268,1309.13382 836.577148,1302.89355 C840.708028,1296.65329 845.629854,1291.42385 851.342773,1287.20508 C857.055693,1282.98631 864.042927,1280.87695 872.304688,1280.87695 C876.523459,1280.87695 880.522442,1281.53613 884.301758,1282.85449 C888.081074,1284.17286 891.420884,1286.10643 894.321289,1288.65527 C897.221694,1291.20411 899.550772,1294.23631 901.308594,1297.75195 C903.066415,1301.2676 903.945312,1305.31052 903.945312,1309.88086 C903.945312,1313.74807 902.407242,1316.47265 899.331055,1318.05469 C896.254867,1319.63673 892.783222,1320.42773 888.916016,1320.42773 L886.279297,1320.42773 L874.941406,1309.08984 C874.589842,1309.08984 874.326173,1309.00195 874.150391,1308.82617 C873.798826,1308.82617 873.491212,1308.78223 873.227539,1308.69434 C872.963866,1308.60644 872.656252,1308.5625 872.304688,1308.5625 C866.152313,1308.5625 861.362322,1310.27635 857.93457,1313.7041 C854.506819,1317.13185 851.914071,1321.35056 850.15625,1326.36035 C848.398429,1331.37014 847.299807,1336.64353 846.860352,1342.18066 C846.420896,1347.7178 846.201172,1352.77146 846.201172,1357.3418 C846.201172,1360.85744 846.552731,1364.41697 847.255859,1368.02051 C847.958988,1371.62404 848.749996,1375.13963 849.628906,1378.56738 C850.507817,1381.99513 851.298825,1385.51072 852.001953,1389.11426 C852.705082,1392.71779 853.056641,1396.45311 853.056641,1400.32031 C853.056641,1407.70316 849.101602,1411.39453 841.191406,1411.39453 C836.796853,1411.39453 832.226586,1409.06545 827.480469,1404.40723 C822.734351,1399.749 818.03225,1393.81644 813.374023,1386.60938 C808.715797,1379.40231 804.277365,1371.44829 800.058594,1362.74707 C795.839823,1354.04585 792.148453,1345.56449 788.984375,1337.30273 C785.820297,1329.04097 783.315439,1321.57035 781.469727,1314.89062 C779.624014,1308.2109 778.701172,1303.28908 778.701172,1300.125 L778.701172,1300.125 Z M924.511719,1311.99023 C924.511719,1310.93554 924.555664,1309.22169 924.643555,1306.84863 C924.731446,1304.47557 924.819335,1301.97072 924.907227,1299.33398 C924.995118,1296.69725 925.083007,1294.14845 925.170898,1291.6875 C925.25879,1289.22655 925.302734,1287.46876 925.302734,1286.41406 C927.236338,1283.60155 929.741196,1281.31642 932.817383,1279.55859 C935.89357,1277.80077 939.013656,1276.39454 942.177734,1275.33984 C942.705081,1284.83208 944.199206,1294.9394 946.660156,1305.66211 C949.121106,1316.38482 951.757798,1327.15131 954.570312,1337.96191 C957.382827,1348.77251 959.887684,1359.45112 962.084961,1369.99805 C964.282238,1380.54497 965.380859,1390.38863 965.380859,1399.5293 C965.380859,1407.43949 961.337931,1411.39453 953.251953,1411.39453 C948.330054,1411.39453 944.199235,1409.37307 940.859375,1405.33008 C937.519515,1401.28709 934.838877,1396.14554 932.817383,1389.90527 C930.795888,1383.66501 929.169928,1376.72172 927.939453,1369.0752 C926.708978,1361.42867 925.874026,1353.9141 925.43457,1346.53125 C924.995115,1339.1484 924.731446,1332.38089 924.643555,1326.22852 C924.555664,1320.07614 924.511719,1315.33009 924.511719,1311.99023 L924.511719,1311.99023 Z M928.203125,1213.11328 C931.542985,1214.51954 934.355457,1216.80467 936.640625,1219.96875 C938.925793,1223.13283 939.936525,1225.98925 939.672852,1228.53809 C939.409178,1231.08693 937.431659,1232.84472 933.740234,1233.81152 C930.04881,1234.77833 923.896527,1233.76759 915.283203,1230.7793 C915.283203,1226.03318 916.206045,1221.90236 918.051758,1218.38672 C919.89747,1214.87108 923.281225,1213.11328 928.203125,1213.11328 L928.203125,1213.11328 Z M1015.47852,1399.5293 C1010.02927,1383.70891 1004.88772,1368.89948 1000.05371,1355.10059 C995.219702,1341.30169 991.000995,1327.76667 987.397461,1314.49512 C983.793927,1301.22357 980.937511,1287.73249 978.828125,1274.02148 C976.718739,1260.31048 975.664062,1245.63289 975.664062,1229.98828 C975.664062,1228.75781 975.708007,1226.51662 975.795898,1223.26465 C975.88379,1220.01268 975.927734,1216.62892 975.927734,1213.11328 C975.927734,1209.59764 975.971679,1206.21388 976.05957,1202.96191 C976.147461,1199.70994 976.191406,1197.46876 976.191406,1196.23828 C977.773445,1192.72264 980.541972,1189.47072 984.49707,1186.48242 C988.452168,1183.49413 992.451152,1182 996.494141,1182 C996.494141,1195.00788 996.66992,1208.85051 997.021484,1223.52832 C997.373049,1238.20613 998.47167,1252.83977 1000.31738,1267.42969 C1002.1631,1282.0196 1005.15135,1296.30169 1009.28223,1310.27637 C1013.41311,1324.25105 1019.25777,1337.039 1026.81641,1348.64062 C1026.99219,1344.42185 1027.16797,1339.7637 1027.34375,1334.66602 C1027.51953,1329.56833 1028.00293,1324.47073 1028.79395,1319.37305 C1029.58496,1314.27537 1030.85937,1309.35354 1032.61719,1304.60742 C1034.37501,1299.8613 1036.96776,1295.6426 1040.39551,1291.95117 C1043.82326,1288.25975 1048.30564,1285.35939 1053.84277,1283.25 C1059.37991,1281.14061 1066.36715,1280.17383 1074.80469,1280.34961 C1082.36332,1280.34961 1089.17477,1281.75585 1095.23926,1284.56836 C1101.30374,1287.38087 1106.40135,1291.20408 1110.53223,1296.03809 C1114.66311,1300.87209 1117.82714,1306.49704 1120.02441,1312.91309 C1122.22169,1319.32913 1123.32031,1326.14059 1123.32031,1333.34766 C1123.32031,1343.01567 1120.94729,1352.50777 1116.20117,1361.82422 C1111.45505,1371.14067 1105.17094,1379.4902 1097.34863,1386.87305 C1089.52633,1394.2559 1080.7813,1400.18845 1071.11328,1404.6709 C1061.44526,1409.15334 1051.60161,1411.39453 1041.58203,1411.39453 C1036.48435,1411.39453 1031.56252,1410.47169 1026.81641,1408.62598 C1022.07029,1406.78026 1018.29103,1403.74807 1015.47852,1399.5293 L1015.47852,1399.5293 Z M1077.96875,1303.28906 C1074.45311,1305.22267 1070.76174,1307.5078 1066.89453,1310.14453 C1063.02732,1312.78126 1059.46779,1316.86814 1056.21582,1322.40527 C1052.96385,1327.94241 1050.19532,1335.45698 1047.91016,1344.94922 C1045.62499,1354.44145 1044.21875,1367.00969 1043.69141,1382.6543 C1044.04297,1382.6543 1044.96581,1382.74219 1046.45996,1382.91797 C1047.95411,1383.09375 1048.96484,1383.18164 1049.49219,1383.18164 C1054.2383,1383.18164 1059.64352,1381.68751 1065.70801,1378.69922 C1071.77249,1375.71092 1077.6611,1372.01955 1083.37402,1367.625 C1089.08694,1363.23045 1094.05271,1358.35257 1098.27148,1352.99121 C1102.49026,1347.62986 1105.03906,1342.48831 1105.91797,1337.56641 C1106.44532,1334.57811 1105.83009,1331.15041 1104.07227,1327.2832 C1102.31444,1323.416 1099.98537,1319.68068 1097.08496,1316.07715 C1094.18456,1312.47361 1091.02052,1309.44142 1087.59277,1306.98047 C1084.16502,1304.51952 1080.95705,1303.28906 1077.96875,1303.28906 L1077.96875,1303.28906 Z M1139.4043,1337.56641 C1139.4043,1328.07417 1140.54686,1318.58208 1142.83203,1309.08984 C1145.1172,1299.59761 1148.76462,1291.0723 1153.77441,1283.51367 C1158.7842,1275.95504 1165.28805,1269.80276 1173.28613,1265.05664 C1181.28422,1260.31052 1190.99604,1257.9375 1202.42188,1257.9375 C1208.92581,1257.9375 1214.63865,1259.12401 1219.56055,1261.49707 C1224.48245,1263.87013 1228.61326,1266.99022 1231.95312,1270.85742 C1235.29299,1274.72463 1237.79784,1279.25095 1239.46777,1284.43652 C1241.1377,1289.6221 1241.97266,1295.02732 1241.97266,1300.65234 C1241.97266,1309.61723 1239.90725,1318.31832 1235.77637,1326.75586 C1231.64549,1335.1934 1226.10843,1342.62009 1219.16504,1349.03613 C1212.22164,1355.45218 1204.26762,1360.28612 1195.30273,1363.53809 C1186.33785,1366.79006 1177.19731,1367.53712 1167.88086,1365.7793 C1168.05664,1370.87698 1169.77049,1374.96385 1173.02246,1378.04004 C1176.27443,1381.11623 1180.18552,1383.4453 1184.75586,1385.02734 C1189.32619,1386.60938 1194.07224,1387.62011 1198.99414,1388.05957 C1203.91604,1388.49903 1208.31053,1388.71875 1212.17773,1388.71875 C1216.22072,1388.71875 1219.99998,1388.36719 1223.51562,1387.66406 C1227.03127,1386.96093 1230.54686,1386.16993 1234.0625,1385.29102 C1237.57814,1384.4121 1241.13768,1383.6211 1244.74121,1382.91797 C1248.34474,1382.21484 1252.16795,1381.86328 1256.21094,1381.86328 C1257.79298,1381.86328 1259.37499,1381.95117 1260.95703,1382.12695 C1262.53907,1382.30274 1264.0332,1382.69824 1265.43945,1383.31348 C1266.84571,1383.92871 1267.98828,1384.8955 1268.86719,1386.21387 C1269.7461,1387.53223 1270.18555,1389.15819 1270.18555,1391.0918 C1270.18555,1394.43166 1268.95509,1397.20018 1266.49414,1399.39746 C1264.03319,1401.59474 1260.9131,1403.48437 1257.13379,1405.06641 C1253.35447,1406.64845 1249.17971,1407.83496 1244.60938,1408.62598 C1240.03904,1409.417 1235.60061,1410.03222 1231.29395,1410.47168 C1226.98728,1410.91114 1223.03224,1411.1748 1219.42871,1411.2627 C1215.82518,1411.35059 1213.14454,1411.39453 1211.38672,1411.39453 C1200.13666,1411.39453 1190.02934,1409.59279 1181.06445,1405.98926 C1172.09956,1402.38572 1164.54105,1397.37601 1158.38867,1390.95996 C1152.2363,1384.54391 1147.5342,1376.80962 1144.28223,1367.75684 C1141.03026,1358.70406 1139.4043,1348.64068 1139.4043,1337.56641 L1139.4043,1337.56641 Z M1167.35352,1320.42773 C1167.35352,1326.58011 1168.18847,1331.06249 1169.8584,1333.875 C1171.52833,1336.68751 1175.6152,1338.09375 1182.11914,1338.09375 C1186.68948,1338.09375 1191.17185,1337.2588 1195.56641,1335.58887 C1199.96096,1333.91894 1203.95994,1331.58986 1207.56348,1328.60156 C1211.16701,1325.61327 1214.02343,1322.09768 1216.13281,1318.05469 C1218.2422,1314.0117 1219.29688,1309.61721 1219.29688,1304.87109 C1219.29688,1302.23436 1219.07715,1299.50978 1218.6377,1296.69727 C1218.19824,1293.88475 1217.2754,1291.292 1215.86914,1288.91895 C1214.46288,1286.54589 1212.66114,1284.61231 1210.46387,1283.11816 C1208.26659,1281.62402 1205.41017,1280.87695 1201.89453,1280.87695 C1196.62107,1280.87695 1191.83108,1282.06346 1187.52441,1284.43652 C1183.21775,1286.80958 1179.57033,1289.88572 1176.58203,1293.66504 C1173.59374,1297.44435 1171.3086,1301.66306 1169.72656,1306.32129 C1168.14452,1310.97952 1167.35352,1315.68162 1167.35352,1320.42773 L1167.35352,1320.42773 Z" id="subscribe"></path>
        </g>
    </g>
</svg>